<svg width="25" height="16" viewBox="0 0 25 16" fill="none" xmlns="http://www.w3.org/2000/svg">
<path d="M1.84173 12.6335V3.06543C1.43195 3.15476 1.02212 3.26395 0.636475 3.36319V15.4424C3.87167 14.7061 7.30946 14.8523 10.4353 15.8593C8.3111 14.0905 5.41704 13.0936 2.39619 13.0901C2.09263 13.0848 1.84817 12.8835 1.84173 12.6335Z" fill="#FF0035"/>
<path d="M2.97439 0.456055L2.93823 12.2276C6.48614 12.3789 9.79506 13.7467 12.0621 15.9992V4.7736C9.99235 2.26719 6.64523 0.677003 2.97439 0.456055Z" fill="#FF0035"/>
<path d="M23.3429 3.08545V12.6436C23.3365 12.8935 23.092 13.0949 22.7885 13.1002C19.7744 13.1023 16.8872 14.0999 14.7734 15.8693V15.8793C17.889 14.8687 21.3181 14.7155 24.5482 15.4425V3.38316C24.1625 3.27402 23.7648 3.16487 23.3429 3.08545Z" fill="#FF0035"/>
<path d="M22.2593 0.456055C18.5738 0.655043 15.2085 2.24965 13.1475 4.7736V15.9992C15.4118 13.7492 18.7156 12.3816 22.2593 12.2276V0.456055Z" fill="#FF0035"/>
</svg>
