<svg width="18" height="18" viewBox="0 0 18 18" fill="none" xmlns="http://www.w3.org/2000/svg">
<path d="M5.75 0.395508C3.06125 0.395508 0.875 2.65939 0.875 5.44362V12.4333C0.875 15.2175 3.06125 17.4814 5.75 17.4814H12.5C15.1888 17.4814 17.375 15.2175 17.375 12.4333V5.44362C17.375 2.65939 15.1888 0.395508 12.5 0.395508H5.75ZM13.625 3.50204C14.0375 3.50204 14.375 3.85152 14.375 4.27867C14.375 4.70582 14.0375 5.0553 13.625 5.0553C13.2125 5.0553 12.875 4.70582 12.875 4.27867C12.875 3.85152 13.2125 3.50204 13.625 3.50204ZM9.125 4.66699C11.4012 4.66699 13.25 6.58138 13.25 8.93846C13.25 11.2955 11.4012 13.2099 9.125 13.2099C6.84875 13.2099 5 11.2955 5 8.93846C5 6.58138 6.84875 4.66699 9.125 4.66699ZM9.125 5.44362C7.265 5.44362 5.75 7.01241 5.75 8.93846C5.75 10.8645 7.265 12.4333 9.125 12.4333C10.985 12.4333 12.5 10.8645 12.5 8.93846C12.5 7.01241 10.985 5.44362 9.125 5.44362Z" fill="#1D1D1D"/>
</svg>
