<svg width="20" height="16" viewBox="0 0 20 16" fill="none" xmlns="http://www.w3.org/2000/svg">
<path d="M19.5 1.91728C18.8102 2.2344 18.0688 2.44798 17.2906 2.54425C18.0852 2.05157 18.6953 1.27089 18.982 0.340554C18.2391 0.796825 17.4156 1.12851 16.5391 1.3073C15.8383 0.533094 14.8375 0.0493164 13.7312 0.0493164C11.2477 0.0493164 9.42266 2.44879 9.98359 4.93967C6.7875 4.77383 3.95312 3.1882 2.05547 0.778218C1.04766 2.56852 1.53281 4.91055 3.24531 6.09653C2.61563 6.0755 2.02188 5.89671 1.50391 5.59819C1.46172 7.4435 2.73906 9.16989 4.58906 9.55416C4.04766 9.70625 3.45469 9.74185 2.85156 9.62212C3.34063 11.2045 4.76094 12.3557 6.44531 12.3881C4.82812 13.7011 2.79063 14.2876 0.75 14.0384C2.45234 15.1686 4.475 15.8279 6.64687 15.8279C13.7891 15.8279 17.8242 9.58167 17.5805 3.9794C18.332 3.41715 18.9844 2.71575 19.5 1.91728Z" fill="#1D1D1D"/>
</svg>
